<?xml version="1.0" encoding="UTF-8" standalone="no"?>
<!-- Created with Inkscape (http://www.inkscape.org/) -->

<svg
   xmlns:dc="http://purl.org/dc/elements/1.1/"
   xmlns:cc="http://creativecommons.org/ns#"
   xmlns:rdf="http://www.w3.org/1999/02/22-rdf-syntax-ns#"
   xmlns:svg="http://www.w3.org/2000/svg"
   xmlns="http://www.w3.org/2000/svg"
   xmlns:sodipodi="http://sodipodi.sourceforge.net/DTD/sodipodi-0.dtd"
   xmlns:inkscape="http://www.inkscape.org/namespaces/inkscape"
   width="70.082787mm"
   height="66.299576mm"
   viewBox="0 0 248.32484 234.91975"
   id="svg2"
   version="1.1"
   inkscape:version="0.91 r13725"
   sodipodi:docname="_logo_mono_01.svg"
   inkscape:export-filename="C:\Users\Сергей\Desktop\Фотошоп\SEO\7.png"
   inkscape:export-xdpi="39.471237"
   inkscape:export-ydpi="39.471237">
  <defs
     id="defs4" />
  <sodipodi:namedview
     id="base"
     pagecolor="#ffffff"
     bordercolor="#666666"
     borderopacity="1.0"
     inkscape:pageopacity="0.0"
     inkscape:pageshadow="2"
     inkscape:zoom="2.3581754"
     inkscape:cx="40.875937"
     inkscape:cy="115.29087"
     inkscape:document-units="px"
     inkscape:current-layer="text4136"
     showgrid="false"
     inkscape:window-width="1280"
     inkscape:window-height="661"
     inkscape:window-x="-8"
     inkscape:window-y="-8"
     inkscape:window-maximized="1"
     fit-margin-top="0"
     fit-margin-left="0"
     fit-margin-right="0"
     fit-margin-bottom="0" />
  <metadata
     id="metadata7">
    <rdf:RDF>
      <cc:Work
         rdf:about="">
        <dc:format>image/svg+xml</dc:format>
        <dc:type
           rdf:resource="http://purl.org/dc/dcmitype/StillImage" />
        <dc:title></dc:title>
      </cc:Work>
    </rdf:RDF>
  </metadata>
  <g
     inkscape:label="Layer 1"
     inkscape:groupmode="layer"
     id="layer1"
     transform="translate(-146.05938,-161.682)">
    <g
       style="font-style:normal;font-variant:normal;font-weight:normal;font-stretch:normal;font-size:70px;line-height:125%;font-family:'HFF Clip Hanger';-inkscape-font-specification:'HFF Clip Hanger, Normal';text-align:start;letter-spacing:0px;word-spacing:0px;writing-mode:lr-tb;text-anchor:start;fill:#000000;fill-opacity:1;stroke:none;stroke-width:1px;stroke-linecap:butt;stroke-linejoin:miter;stroke-opacity:1"
       id="text4136">
      <path
         style="color:#000000;font-style:normal;font-variant:normal;font-weight:normal;font-stretch:normal;font-size:medium;line-height:125%;font-family:'HFF Clip Hanger';-inkscape-font-specification:'HFF Clip Hanger, Normal';text-indent:0;text-align:start;text-decoration:none;text-decoration-line:none;text-decoration-style:solid;text-decoration-color:#000000;letter-spacing:0px;word-spacing:0px;text-transform:none;direction:ltr;block-progression:tb;writing-mode:lr-tb;baseline-shift:baseline;text-anchor:start;white-space:normal;clip-rule:nonzero;display:inline;overflow:visible;visibility:visible;opacity:1;isolation:auto;mix-blend-mode:normal;color-interpolation:sRGB;color-interpolation-filters:linearRGB;solid-color:#000000;solid-opacity:1;fill:#433b31;fill-opacity:1;fill-rule:nonzero;stroke:#bca482;stroke-width:0.99269044;stroke-linecap:butt;stroke-linejoin:miter;stroke-miterlimit:4;stroke-dasharray:none;stroke-dashoffset:0;stroke-opacity:1;color-rendering:auto;image-rendering:auto;shape-rendering:auto;text-rendering:auto;enable-background:accumulate"
         d="m 270.42578,171.71484 c -62.59403,0.15447 -113.23828,48.04101 -113.23828,107.10352 0,59.06249 50.64425,106.95099 113.23828,107.10547 l 0.10938,0 0.0527,0 0.10938,0 c 62.70318,0 113.51171,-47.93999 113.51171,-107.10547 0,-59.1655 -50.80853,-107.10352 -113.51171,-107.10352 l -0.10938,0 -0.0527,0 -0.10938,0 z m 0,0.0176 0.10938,0 0.0527,0 0.10938,0 c 62.69421,0 113.49414,47.93178 113.49414,107.08594 0,59.15415 -50.79993,107.08594 -113.49414,107.08594 l -0.10938,0 -0.0527,0 -0.10938,0 c -62.58507,-0.1545 -113.2207,-48.03476 -113.2207,-107.08594 0,-59.05119 50.63563,-106.93148 113.2207,-107.08594 z m -4.24805,9.14453 -0.0117,0.002 c -12.33787,2.98762 -24.83328,18.48814 -32.80079,42.27735 l -0.004,0.0117 0.0117,0.002 c 10.53223,2.42009 21.49877,3.81019 32.79492,4.11914 l 0.01,0 0,-46.41211 z m -0.0195,0.0254 0,46.36719 c -11.28787,-0.30935 -22.24859,-1.69754 -32.77343,-4.11523 7.96387,-23.77236 20.45222,-39.26003 32.77343,-42.25196 z m 9.06055,0.0762 0,0.002 0,46.25782 0.008,0 c 11.187,-0.30895 22.04772,-1.64899 32.52539,-4.01758 l 0.01,-0.002 -0.004,-0.01 c -7.85868,-23.63458 -20.29913,-39.03268 -32.5277,-42.22633 l -0.0117,-0.004 z m 0.0176,0.0273 c 12.21237,3.19689 24.645,18.58151 32.5,42.19922 -10.47025,2.36613 -21.32122,3.7044 -32.5,4.01368 l 0,-46.2129 z m 19.76758,1.97657 0.0254,0.0254 c 8.784,8.64854 16.25804,21.77596 21.55078,37.89062 l 0.004,0.008 0.008,-0.002 c 9.98653,-2.83202 19.48225,-6.5899 28.54101,-11.12109 l 0.0117,-0.006 -0.01,-0.0117 c -13.53423,-12.92461 -30.77907,-22.39856 -50.09774,-26.77541 l -0.0332,-0.008 z m 0.0605,0.0352 c 19.29752,4.37834 36.52437,13.84369 50.04688,26.7539 -9.05176,4.5268 -18.5376,8.28115 -28.51563,11.11133 -5.28852,-16.09808 -12.75626,-29.21523 -21.53125,-37.86523 z m -49.00195,0.0684 -0.0312,0.008 c -19.20953,4.37686 -36.34642,13.79867 -49.7168,26.67187 l -0.008,0.0117 0.01,0.006 c 8.94967,4.53122 18.39219,8.23832 28.26953,11.07032 l 0.008,0.002 0.004,-0.008 c 5.23818,-16.0117 12.65745,-29.14127 21.4414,-37.73828 l 0.0234,-0.0234 z m -0.0606,0.0332 c -8.77501,8.59887 -16.18588,21.71731 -21.41992,37.71289 -9.86895,-2.83012 -19.30147,-6.53386 -28.24414,-11.06055 13.35889,-12.85867 30.47569,-22.27402 49.66406,-26.65234 z m 105.34961,33.23242 -0.006,0.006 c -10.14911,5.2515 -20.95314,9.57477 -32.30273,12.81836 l -0.01,0.002 0.004,0.01 c 1.96261,7.32445 3.48281,15.16501 4.53711,23.37109 l 0.0195,0 c -1.05385,-8.204 -2.57529,-16.04399 -4.53711,-23.36719 11.34497,-3.24292 22.14542,-7.56727 32.29102,-12.8164 13.90852,15.95641 22.63482,36.13354 23.61914,58.21289 l -14.25782,0 0,0.0195 14.2793,0 -0.002,-0.0117 c -0.98196,-22.09083 -9.71234,-42.27561 -23.62851,-58.23839 l -0.004,-0.006 -0.002,0 z m -161.30664,0.002 -0.004,0.004 c -13.91603,15.96282 -22.64853,36.14827 -23.63086,58.1875 l 0,0.01 14.4375,0 0,-0.0176 -14.41993,0 c 0.98432,-22.0279 9.71258,-42.20571 23.6211,-58.16211 10.09101,5.24911 20.83636,9.57414 32.07226,12.76562 -1.99454,7.33588 -3.53066,15.19052 -4.59961,23.41797 l 0.0176,0 c 1.06933,-8.22922 2.60823,-16.085 4.60352,-23.42187 l 0.002,-0.01 -0.008,-0.002 c -11.24019,-3.19205 -21.98918,-7.51603 -32.08373,-12.76755 l -0.008,-0.004 z m 40.8125,15.0332 -0.004,0.01 c -1.75671,6.55004 -3.16441,13.6364 -4.16797,21.16211 l 0.0176,0 c 1.00325,-7.52014 2.41281,-14.60256 4.16797,-21.14844 11.34516,2.57267 23.17872,4.1164 35.28711,4.42579 l 0,16.72265 0.0195,0 0,-16.74219 -0.01,0 c -12.11351,-0.30891 -23.95313,-1.85345 -35.30274,-4.42773 l -0.008,-0.002 z m 79.4082,0.0527 -0.008,0.002 c -11.29502,2.57425 -22.97229,4.06606 -35.03125,4.375 l 0,0.0195 -0.008,-0.01 0,16.73242 0.0176,0 0,-16.72265 c 12.05374,-0.30938 23.72507,-1.80042 35.01562,-4.37305 1.75109,6.53067 3.15927,13.59481 4.16211,21.0957 l 0.0176,0 c -1.00316,-7.50608 -2.41138,-14.57632 -4.16406,-21.11132 l -0.002,-0.008 z m -143.9121,51.64258 0.002,0.0117 c 1.0369,22.03921 9.71275,42.22273 23.62891,58.18555 l 0.004,0.008 0.008,-0.004 c 10.14913,-5.25152 20.84354,-9.52593 32.08399,-12.76953 l 0.008,-0.002 -0.002,-0.008 c -1.81793,-6.6847 -3.26266,-13.80717 -4.3086,-21.24805 l -0.0176,0 c 1.0455,7.43853 2.48956,14.559 4.30664,21.24219 -11.23548,3.24277 -21.92704,7.51673 -32.07227,12.76562 -13.90912,-15.95657 -22.58222,-36.13363 -23.62109,-58.16211 l 14.47461,0 0,-0.0195 -14.49414,0 z m 194.35546,0 0,0.0195 14.25782,0 c -0.98435,22.02843 -9.71195,42.15403 -23.6211,58.16211 -10.19985,-5.30037 -20.99912,-9.62632 -32.34375,-12.86914 1.81265,-6.6671 3.25387,-13.74456 4.29883,-21.13867 l -0.0176,0 c -1.04534,7.39571 -2.48733,14.47627 -4.30078,21.14453 l -0.004,0.008 0.01,0.002 c 11.34956,3.24358 22.15178,7.56809 32.35547,12.87109 l 0.008,0.004 0.004,-0.006 c 13.91615,-16.01427 22.64854,-36.14632 23.63086,-58.18555 l 0,-0.0117 -14.27735,0 z M 226.99215,307.2559 c 0.97817,6.71524 2.27529,13.07266 3.86133,18.98633 l 0.004,0.008 0.01,-0.002 c 11.34959,-2.62577 23.18922,-4.16962 35.30273,-4.47852 l 0.01,0 0,-14.51367 -0.0215,0 0,14.49414 c -12.1084,0.30941 -23.94387,1.85441 -35.28906,4.47852 -1.5845,-5.90939 -2.87966,-12.26302 -3.85742,-18.97266 l -0.0195,0 z m 48.22656,0 0,14.51367 0.008,0 c 12.05893,0.30893 23.73621,1.85346 35.03125,4.42774 l 0.008,0.002 0.004,-0.01 c 1.58227,-5.89962 2.8761,-12.24152 3.85352,-18.93359 l -0.0195,0 c -0.97703,6.68739 -2.27076,13.02429 -3.85157,18.91992 -11.29052,-2.57265 -22.96185,-4.11637 -35.01562,-4.42578 l 0,-14.49414 -0.0176,0 z m -0.002,23.04102 0.002,0.002 0,46.35937 0.01,-0.004 c 12.28313,-3.19365 24.67104,-18.59114 32.58398,-42.27735 l 0.004,-0.01 -0.01,-0.002 c -10.5322,-2.36856 -21.39306,-3.75941 -32.58008,-4.06835 l -0.01,0 z m 0.0195,0.0195 c 11.17876,0.30929 22.02988,1.70022 32.55469,4.0664 -7.90954,23.66923 -20.28783,39.05311 -32.55469,42.25 l 0,-46.3164 z m -9.06836,0.0332 c -11.29615,0.30893 -22.26463,1.69835 -32.79688,4.16992 l -0.01,0.002 0.004,0.01 c 7.96752,23.78923 20.46298,39.24017 32.80079,42.2793 l 0.0117,0.004 0,-46.46484 -0.01,0 z m -0.01,0.0176 0,46.41992 c -12.32128,-3.04329 -24.80957,-18.4796 -32.77343,-42.25195 10.52481,-2.46908 21.48555,-3.85862 32.77343,-4.16797 z m 50.48047,6.3125 -0.004,0.01 c -5.34732,16.1662 -12.76695,29.29287 -21.60547,37.94141 l -0.0254,0.0254 0.0332,-0.008 c 19.31865,-4.37685 36.61824,-13.85196 50.15234,-26.82813 l 0.01,-0.01 -0.0137,-0.006 c -9.05875,-4.53116 -18.55255,-8.2891 -28.53907,-11.1211 l -0.008,-0.004 z m 0.01,0.0234 c 9.97806,2.83011 19.46577,6.58655 28.51758,11.11329 -13.52236,12.96108 -30.80452,22.42644 -50.10157,26.80468 8.82951,-8.6502 16.24096,-21.76806 21.58399,-37.91797 z m -92.10938,0.0293 -0.008,0.002 c -9.82277,2.83197 -19.3179,6.53911 -28.26758,11.07031 l -0.0117,0.006 0.01,0.01 c 13.42496,12.92469 30.55999,22.34775 49.76953,26.72461 l 0.0312,0.008 -0.0234,-0.0234 c -8.784,-8.64855 -16.20334,-21.72588 -21.49609,-37.78907 l -0.004,-0.008 z m -0.0117,0.0234 c 5.2885,16.04652 12.69977,29.11378 21.47461,37.76367 -19.18783,-4.37819 -36.30358,-13.79356 -49.71679,-26.70312 8.94241,-4.52646 18.42801,-8.23051 28.24218,-11.06055 z"
         id="path3"
         inkscape:connector-curvature="0" />
      <path
         d="m 185.65248,305.73425 67.09232,0 c 2.81386,0 16.99068,-0.54005 19.56021,-1.62013 2.56954,-1.0801 4.91477,-2.49772 7.0357,-4.25286 2.18331,-1.80015 4.07567,-3.82532 5.67705,-6.0755 1.66379,-2.29519 2.96566,-4.63538 3.90561,-7.02058 0.97542,-2.4752 1.54,-4.92791 1.69374,-7.35811 0.19838,-2.43019 -0.067,-4.59037 -0.79599,-6.48053 -0.72904,-1.89016 -1.93496,-3.42029 -3.61775,-4.59038 -1.68278,-1.1701 -3.8641,-1.75515 -6.54397,-1.75515 l -22.87455,0 -12.23717,31.05257 9.64751,0 c 1.78658,0 14.96797,-0.33753 16.57393,-1.01259 1.65063,-0.67505 3.1354,-1.55263 4.45432,-2.63271 1.3636,-1.08009 2.54362,-2.31769 3.54004,-3.71281 1.0411,-1.39511 1.8454,-2.81273 2.41293,-4.25285 0.54978,-1.39511 0.86738,-2.76773 0.95279,-4.11784 0.10314,-1.39512 -0.11031,-2.61022 -0.64036,-3.6453 -0.48539,-1.03509 -1.29623,-1.86765 -2.43253,-2.49771 -1.07391,-0.67505 -2.52649,-1.01258 -4.35773,-1.01258 l -17.11285,0 1.8488,-4.11784 16.81982,0 c 2.36721,0 4.31142,0.45004 5.83263,1.35011 1.53894,0.85508 2.64108,2.02517 3.30642,3.51029 0.72775,1.44012 1.05418,3.10525 0.97927,4.99541 -0.0571,1.84515 -0.47593,3.75781 -1.25628,5.73798 -0.74487,1.89016 -1.82472,3.78031 -3.23955,5.67046 -1.35244,1.84516 -2.93773,3.48779 -4.75585,4.92791 -1.81813,1.44012 -3.84249,2.61022 -6.0731,3.51029 -2.18594,0.90008 -15.96998,1.35012 -18.38186,1.35012 l -13.73431,0 15.42949,-39.15324 28.36828,0 c 3.08184,0 5.56268,0.67505 7.4425,2.02518 1.92449,1.3501 3.30085,3.12774 4.12908,5.33292 0.8729,2.20519 1.19734,4.72539 0.97332,7.56063 -0.2063,2.79023 -0.8947,5.67047 -2.06519,8.64071 -1.17052,2.97025 -2.7834,5.87299 -4.83866,8.70822 -2.01059,2.83524 -4.3079,5.37794 -6.89189,7.62814 -2.56627,2.20518 -5.36603,3.98282 -8.39928,5.33293 -2.98859,1.35011 -17.50895,2.02517 -20.5908,2.02517 l -68.43225,0 z"
         id="path4143"
         inkscape:connector-curvature="0"
         sodipodi:nodetypes="cssccscsssccscccscccsccscccscscsccscccscccscc"
         style="fill:#bca482;fill-opacity:1" />
      <path
         d="m 202.13534,293.22684 -10.02844,-27.32757 3.03892,0 7.29341,19.83981 1.67141,-3.7712 -7.09082,-19.34792 -9.11676,0 13.97903,38.20394 12.76347,-28.80325 12.81411,28.80325 13.97904,-38.20394 -9.11676,0 -7.09082,19.34792 1.67141,3.7712 7.29341,-19.83981 3.03892,0 -10.02844,27.32757 -12.56087,-28.09274 -12.51022,28.09274 z"
         id="path4145"
         inkscape:connector-curvature="0"
         style="fill:#bca482;fill-opacity:1;stroke:none;stroke-width:0.60000002;stroke-miterlimit:4;stroke-dasharray:none;stroke-opacity:0.99607843" />
      <path
         style="font-style:normal;font-variant:normal;font-weight:normal;font-stretch:normal;font-size:70px;line-height:125%;font-family:'HFF Clip Hanger';-inkscape-font-specification:'HFF Clip Hanger, Normal';text-align:start;letter-spacing:0px;word-spacing:0px;writing-mode:lr-tb;text-anchor:start;fill:#bca482;fill-opacity:1;stroke:none;stroke-width:0.60000002;stroke-linecap:butt;stroke-linejoin:miter;stroke-miterlimit:4;stroke-dasharray:none;stroke-opacity:0.99607843"
         d="m 309.55237,270.21702 -10.02844,27.32757 3.03892,0 7.29341,-19.83981 1.67141,3.7712 -7.09082,19.34792 -9.11676,0 13.97903,-38.20394 12.76347,28.80325 12.81411,-28.80325 13.97904,38.20394 -9.11676,0 -7.09082,-19.34792 1.67141,-3.7712 7.29341,19.83981 3.03892,0 -10.02844,-27.32757 -12.56087,28.09274 -12.51022,-28.09274 z"
         id="path4145-0"
         inkscape:connector-curvature="0" />
      <ellipse
         style="fill:#000000;fill-opacity:0;stroke:#bca482;stroke-width:3.3860002;stroke-linecap:round;stroke-linejoin:round;stroke-miterlimit:4;stroke-dasharray:none;stroke-dashoffset:0;stroke-opacity:1"
         id="path4242"
         cx="270.2218"
         cy="279.14188"
         rx="123.01942"
         ry="116.31688" />
      <path
         style="opacity:1;fill:#433b31;fill-opacity:0;stroke:#bca482;stroke-width:3.91400003;stroke-linecap:butt;stroke-linejoin:round;stroke-miterlimit:4;stroke-dasharray:none;stroke-dashoffset:0;stroke-opacity:1"
         d="m 226.9407,307.74233 -42.25213,0 c -1.1611,0 -2.20903,-0.49826 -2.96667,-1.30597 -0.75766,-0.80771 -1.22503,-1.92489 -1.22503,-3.16271 l 0,-21.56432 0,-21.56431 c 0,-1.23782 0.46737,-2.35499 1.22503,-3.16271 0.75764,-0.80771 1.80557,-1.30597 2.96667,-1.30597 l 84.50425,0 84.50425,0 c 1.16111,0 2.20903,0.49826 2.96668,1.30597 0.75765,0.80771 1.22503,1.92488 1.22503,3.16271 l 0,21.56431 0,21.56432 c 0,1.23782 -0.46738,2.355 -1.22503,3.16271 -0.75765,0.80771 -1.80557,1.30597 -2.96668,1.30597 l -42.25213,0 -12.20865,0 -8.91741,0"
         id="rect4869"
         inkscape:connector-curvature="0"
         sodipodi:nodetypes="cssscssscssscsssccc" />
    </g>
  </g>
</svg>
