<?xml version="1.0" encoding="UTF-8" standalone="no"?>
<svg
   xmlns:dc="http://purl.org/dc/elements/1.1/"
   xmlns:cc="http://creativecommons.org/ns#"
   xmlns:rdf="http://www.w3.org/1999/02/22-rdf-syntax-ns#"
   xmlns:svg="http://www.w3.org/2000/svg"
   xmlns="http://www.w3.org/2000/svg"
   xmlns:sodipodi="http://sodipodi.sourceforge.net/DTD/sodipodi-0.dtd"
   xmlns:inkscape="http://www.inkscape.org/namespaces/inkscape"
   preserveAspectRatio="xMidYMid"
   width="300"
   height="135"
   viewBox="0 0 300 135"
   id="svg2"
   version="1.1"
   inkscape:version="0.91 r13725"
   sodipodi:docname="blog_icon1.svg">
  <metadata
     id="metadata11">
    <rdf:RDF>
      <cc:Work
         rdf:about="">
        <dc:format>image/svg+xml</dc:format>
        <dc:type
           rdf:resource="http://purl.org/dc/dcmitype/StillImage" />
        <dc:title></dc:title>
      </cc:Work>
    </rdf:RDF>
  </metadata>
  <sodipodi:namedview
     pagecolor="#ffffff"
     bordercolor="#666666"
     borderopacity="1"
     objecttolerance="10"
     gridtolerance="10"
     guidetolerance="10"
     inkscape:pageopacity="0"
     inkscape:pageshadow="2"
     inkscape:window-width="640"
     inkscape:window-height="480"
     id="namedview9"
     showgrid="false"
     inkscape:zoom="2.5746896"
     inkscape:cx="207.07449"
     inkscape:cy="44.932685"
     inkscape:current-layer="svg2" />
  <defs
     id="defs4">
    <style
       id="style6">

      .cls-2 {
        fill: #4f4f4f;
      }
    </style>
  </defs>
  <path
     style="fill:#433b31;fill-opacity:1;stroke:#000000;stroke-width:1.58309364;stroke-miterlimit:6.69999981;stroke-dasharray:none;stroke-opacity:0"
     d="M 0.35944309,0.19760929 0.74783942,135.41735 299.48237,134.64056 299.87076,0.19760929 Z M 117.46099,13.294752 l 51.8909,0 c 1.59604,0 2.89057,1.270331 2.89057,2.835732 l 5.77925,0.174678 c 2.34775,0 2.88866,2.835732 2.88866,2.835732 l 0,70.848702 c 0,2.125814 -2.70908,2.655479 -2.70908,2.655479 l -55.26101,0 c -5.05652,0 -8.36796,-8.501621 -8.36796,-8.501621 l 0.0363,-5.667748 2.6021,0.176537 c 5.95982,0 5.97028,-5.844284 5.97028,-5.844284 0,-5.66789 -5.76586,-5.844284 -5.76586,-5.844284 l -2.87912,0 0.0478,-11.157101 2.72054,-0.0019 c 5.41792,0 5.9722,-5.49121 5.9722,-5.49121 0,-6.022487 -5.94927,-6.022679 -5.94927,-6.02268 l -2.69571,0 -0.0592,-11.158958 2.74157,-0.163528 c 5.9598,0 5.8996,-5.678898 5.8996,-5.678898 0,-5.137587 -5.7525,-5.669605 -5.7525,-5.669605 l -2.88867,0 0,-5.489353 c 0,-1.565401 1.293,-2.835732 2.88867,-2.835732 z m 54.78147,5.403872 0,62.493885 c 0,1.565747 -1.29452,2.833873 -2.89057,2.833873 l -49.21048,0.02973 c 0,1.948339 2.97846,2.921214 2.97846,2.921214 l 49.12259,0 c 3.07017,0 2.97847,-2.65548 2.97847,-2.65548 l 0,-64.649487 z m -60.68107,5.931623 5.77924,0 c 1.59567,0 2.89058,1.268473 2.89058,2.833874 0,1.565046 -1.29491,2.833873 -2.89058,2.833873 l -5.77924,0 c -1.59603,0 -2.88867,-1.268827 -2.88867,-2.833873 0,-1.565401 1.29264,-2.833874 2.88867,-2.833874 z m 17.33772,8.501621 0,22.672848 37.56411,0 0,-22.672848 z m 7.22357,5.669606 23.11697,0 c 0.79767,0 1.44434,0.634989 1.44434,1.417866 0,0.78217 -0.64667,1.416008 -1.44434,1.416008 l -23.11697,0 c -0.79837,0 -1.44433,-0.633838 -1.44433,-1.416008 0,-0.782877 0.64596,-1.417866 1.44433,-1.417866 z m -24.43902,8.501621 5.65697,0 c 1.59567,0 2.89058,1.268475 2.89058,2.833874 0,1.565047 -1.29491,2.833873 -2.89058,2.833873 l -5.65697,0 c -1.59603,0 -2.89058,-1.268826 -2.89058,-2.833873 0,-1.565399 1.29455,-2.833874 2.89058,-2.833874 z m 24.43902,0 23.11697,0 c 0.79767,0 1.44434,0.633132 1.44434,1.416007 0,0.782523 -0.64667,1.417867 -1.44434,1.417867 l -23.11697,0 c -0.79837,0 -1.44433,-0.635344 -1.44433,-1.417867 0,-0.782875 0.64596,-1.416007 1.44433,-1.416007 z m -24.56129,22.67099 5.77924,0 c 1.59567,0 2.89058,1.268473 2.89058,2.833874 0,1.565047 -1.29491,2.833873 -2.89058,2.833873 l -5.77924,0 c -1.59603,0 -2.88867,-1.268826 -2.88867,-2.833873 0,-1.565401 1.29264,-2.833874 2.88867,-2.833874 z"
     id="rect4137"
     inkscape:connector-curvature="0"
     sodipodi:nodetypes="ccccccscccscsccccccccccccccccscccscccscccssssssscccccssssssssssssssssssssssssssss" />
  <rect
     style="fill:#000000;fill-opacity:0;stroke:#000000;stroke-width:1.64100003;stroke-miterlimit:6.69999981;stroke-dasharray:none;stroke-opacity:0"
     id="rect4139"
     width="205.41637"
     height="226.91342"
     x="-1.5923749"
     y="-90.719154" />
  <path
     style="fill:#c4ae8f;fill-opacity:0;stroke:#000000;stroke-width:0.65327185;stroke-miterlimit:6.69999981;stroke-dasharray:none;stroke-opacity:0"
     d="m -342.0888,26.34648 0,-259.75617 430.737431,0 430.737429,0 0,259.75617 0,259.75616 -430.737429,0 -430.737431,0 0,-259.75616 z M 1.8641945,241.88203 c 2.0362814,-0.92174 3.7910587,-2.45397 4.6136199,-4.02847 C 6.9570038,236.93632 7.0381313,221.89391 7.0306711,135.34441 7.0222711,38.04258 6.9923741,33.84538 6.2960368,32.31788 5.2628283,30.05135 3.5224699,28.12563 1.8827815,27.43459 0.86125705,27.00407 -1.5654587,26.79406 -6.8938679,26.67504 -16.917156,26.45116 -16.579612,26.5268 -17.154933,24.37575 c -0.530165,-1.98224 -2.372914,-4.29817 -4.228926,-5.31482 -1.149201,-0.62949 -6.335224,-0.67633 -74.882054,-0.67633 -40.506037,0 -74.136697,0.13695 -74.734797,0.30432 -1.58348,0.44314 -3.90375,2.63156 -4.73866,4.46939 -0.62905,1.3847 -0.7261,2.74115 -0.73369,10.25433 l -0.009,8.65854 4.09634,0 c 8.92414,0 15.64688,3.52701 18.42175,9.66477 2.19658,4.85865 1.28276,11.8947 -2.13133,16.41037 -1.61593,2.13732 -4.86894,4.33386 -7.44872,5.02963 -1.27992,0.3452 -9.02653,1.05778 -12.24138,1.12603 -0.65163,0.0138 -0.69666,1.0441 -0.69666,15.93854 l 0,15.92375 4.69348,0 c 5.13274,0 8.02575,0.56567 11.25055,2.1998 6.25654,3.17043 9.35578,10.91573 7.20339,18.00199 -1.02869,3.38675 -3.50105,7.20034 -5.73131,8.84049 -3.08042,2.26537 -5.46844,2.898 -11.74328,3.11102 l -5.67283,0.19258 0,15.87361 0,15.87361 4.9407,0 c 7.25329,0 11.31264,1.45913 14.90668,5.35822 6.5044,7.05641 4.31883,20.4867 -4.08952,25.12994 -3.05058,1.68462 -6.15038,2.1937 -11.47836,1.88526 l -4.2795,-0.24778 0,8.26666 0,8.26669 1.96103,4.03468 c 5.00405,10.29546 11.76687,17.55952 17.8809,19.20624 1.4558,0.39212 18.49033,0.50331 79.283409,0.51752 77.06567854,0.0179 77.43764539,0.0143 79.2206555,-0.79277 z M -164.11012,193.14776 c 3.02861,-2.14059 4.28022,-6.13941 2.98397,-9.53363 -0.81668,-2.13844 -3.2134,-4.39544 -5.27561,-4.96809 -0.86021,-0.23886 -5.326,-0.42234 -10.27909,-0.42234 -4.95309,0 -9.41888,0.18348 -10.27909,0.42234 -0.83657,0.23232 -2.21445,1.04885 -3.06197,1.81451 -4.23897,3.82966 -3.41123,10.64638 1.60262,13.19812 1.74429,0.88779 2.02991,0.90642 12.20277,0.79619 l 10.41667,-0.11282 1.68973,-1.19428 z m -0.97656,-63.38844 c 6.0185,-3.18479 6.0185,-11.34815 0,-14.55147 -1.51279,-0.80517 -2.30454,-0.88467 -10.07417,-1.01163 -5.42477,-0.0887 -9.23151,0.0281 -10.67297,0.32736 -6.66579,1.38381 -8.8354,9.34509 -3.83991,14.09034 2.03105,1.92931 4.00376,2.2276 13.98811,2.11511 8.33201,-0.0939 9.07169,-0.16154 10.59894,-0.96971 z m -1.31508,-63.43313 c 2.06221,-0.57265 4.45893,-2.82966 5.27561,-4.9681 1.29625,-3.39419 0.0446,-7.39304 -2.98397,-9.53361 l -1.68973,-1.19428 -10.41667,-0.11284 c -10.17286,-0.1102 -10.45848,-0.0916 -12.20277,0.79618 -6.19236,3.15158 -5.53741,12.51025 1.03958,14.85461 1.91533,0.68272 18.63487,0.80867 20.97795,0.15804 z"
     id="path4141"
     inkscape:connector-curvature="0" />
  <path
     style="fill:#c4ae8f;fill-opacity:0;stroke:#000000;stroke-width:0.65327185;stroke-miterlimit:6.69999981;stroke-dasharray:none;stroke-opacity:0"
     d="m -342.0888,26.34648 0,-259.75617 430.737431,0 430.737429,0 0,259.75617 0,259.75616 -430.737429,0 -430.737431,0 0,-259.75616 z M 1.8641945,241.88203 c 2.0362814,-0.92174 3.7910587,-2.45397 4.6136199,-4.02847 C 6.9570038,236.93632 7.0381313,221.89391 7.0306711,135.34441 7.0222711,38.04258 6.9923741,33.84538 6.2960368,32.31788 5.2628283,30.05135 3.5224699,28.12563 1.8827815,27.43459 0.86125705,27.00407 -1.5654587,26.79406 -6.8938679,26.67504 -16.917156,26.45116 -16.579612,26.5268 -17.154933,24.37575 c -0.530165,-1.98224 -2.372914,-4.29817 -4.228926,-5.31482 -1.149201,-0.62949 -6.335224,-0.67633 -74.882054,-0.67633 -40.506037,0 -74.136697,0.13695 -74.734797,0.30432 -1.58348,0.44314 -3.90375,2.63156 -4.73866,4.46939 -0.62905,1.3847 -0.7261,2.74115 -0.73369,10.25433 l -0.009,8.65854 4.09634,0 c 8.92414,0 15.64688,3.52701 18.42175,9.66477 2.19658,4.85865 1.28276,11.8947 -2.13133,16.41037 -1.61593,2.13732 -4.86894,4.33386 -7.44872,5.02963 -1.27992,0.3452 -9.02653,1.05778 -12.24138,1.12603 -0.65163,0.0138 -0.69666,1.0441 -0.69666,15.93854 l 0,15.92375 4.69348,0 c 5.13274,0 8.02575,0.56567 11.25055,2.1998 6.25654,3.17043 9.35578,10.91573 7.20339,18.00199 -1.02869,3.38675 -3.50105,7.20034 -5.73131,8.84049 -3.08042,2.26537 -5.46844,2.898 -11.74328,3.11102 l -5.67283,0.19258 0,15.87361 0,15.87361 4.9407,0 c 7.25329,0 11.31264,1.45913 14.90668,5.35822 6.5044,7.05641 4.31883,20.4867 -4.08952,25.12994 -3.05058,1.68462 -6.15038,2.1937 -11.47836,1.88526 l -4.2795,-0.24778 0,8.26666 0,8.26669 1.96103,4.03468 c 5.00405,10.29546 11.76687,17.55952 17.8809,19.20624 1.4558,0.39212 18.49033,0.50331 79.283409,0.51752 77.06567854,0.0179 77.43764539,0.0143 79.2206555,-0.79277 z M -164.11012,193.14776 c 3.02861,-2.14059 4.28022,-6.13941 2.98397,-9.53363 -0.81668,-2.13844 -3.2134,-4.39544 -5.27561,-4.96809 -0.86021,-0.23886 -5.326,-0.42234 -10.27909,-0.42234 -4.95309,0 -9.41888,0.18348 -10.27909,0.42234 -0.83657,0.23232 -2.21445,1.04885 -3.06197,1.81451 -4.23897,3.82966 -3.41123,10.64638 1.60262,13.19812 1.74429,0.88779 2.02991,0.90642 12.20277,0.79619 l 10.41667,-0.11282 1.68973,-1.19428 z m -0.97656,-63.38844 c 6.0185,-3.18479 6.0185,-11.34815 0,-14.55147 -1.51279,-0.80517 -2.30454,-0.88467 -10.07417,-1.01163 -5.42477,-0.0887 -9.23151,0.0281 -10.67297,0.32736 -6.66579,1.38381 -8.8354,9.34509 -3.83991,14.09034 2.03105,1.92931 4.00376,2.2276 13.98811,2.11511 8.33201,-0.0939 9.07169,-0.16154 10.59894,-0.96971 z m -1.31508,-63.43313 c 2.06221,-0.57265 4.45893,-2.82966 5.27561,-4.9681 1.29625,-3.39419 0.0446,-7.39304 -2.98397,-9.53361 l -1.68973,-1.19428 -10.41667,-0.11284 c -10.17286,-0.1102 -10.45848,-0.0916 -12.20277,0.79618 -6.19236,3.15158 -5.53741,12.51025 1.03958,14.85461 1.91533,0.68272 18.63487,0.80867 20.97795,0.15804 z"
     id="path4143"
     inkscape:connector-curvature="0" />
</svg>
