<?xml version="1.0" encoding="UTF-8" standalone="no"?>
<svg
   xmlns:dc="http://purl.org/dc/elements/1.1/"
   xmlns:cc="http://creativecommons.org/ns#"
   xmlns:rdf="http://www.w3.org/1999/02/22-rdf-syntax-ns#"
   xmlns:svg="http://www.w3.org/2000/svg"
   xmlns="http://www.w3.org/2000/svg"
   xmlns:sodipodi="http://sodipodi.sourceforge.net/DTD/sodipodi-0.dtd"
   xmlns:inkscape="http://www.inkscape.org/namespaces/inkscape"
   preserveAspectRatio="xMidYMid"
   width="300"
   height="135"
   viewBox="0 0 300 135"
   id="svg2"
   version="1.1"
   inkscape:version="0.91 r13725"
   sodipodi:docname="portfolio1.svg">
  <metadata
     id="metadata11">
    <rdf:RDF>
      <cc:Work
         rdf:about="">
        <dc:format>image/svg+xml</dc:format>
        <dc:type
           rdf:resource="http://purl.org/dc/dcmitype/StillImage" />
        <dc:title></dc:title>
      </cc:Work>
    </rdf:RDF>
  </metadata>
  <sodipodi:namedview
     pagecolor="#ffffff"
     bordercolor="#666666"
     borderopacity="1"
     objecttolerance="10"
     gridtolerance="10"
     guidetolerance="10"
     inkscape:pageopacity="0"
     inkscape:pageshadow="2"
     inkscape:window-width="640"
     inkscape:window-height="480"
     id="namedview9"
     showgrid="false"
     inkscape:zoom="3.6863366"
     inkscape:cx="149.35132"
     inkscape:cy="92.859235"
     inkscape:current-layer="svg2" />
  <defs
     id="defs4">
    <style
       id="style6">

      .cls-2 {
        fill: #4f4f4f;
      }
    </style>
  </defs>
  <rect
     style="fill:#000000;fill-opacity:0;stroke:#000000;stroke-width:1.64100003;stroke-miterlimit:6.69999981;stroke-dasharray:none;stroke-opacity:0"
     id="rect4139"
     width="205.41637"
     height="226.91342"
     x="-1.5923749"
     y="-90.719154" />
  <path
     style="fill:#c4ae8f;fill-opacity:0;stroke:#000000;stroke-width:0.65327185;stroke-miterlimit:6.69999981;stroke-dasharray:none;stroke-opacity:0"
     d="m -342.0888,26.34648 0,-259.75617 430.737431,0 430.737429,0 0,259.75617 0,259.75616 -430.737429,0 -430.737431,0 0,-259.75616 z M 1.8641945,241.88203 c 2.0362814,-0.92174 3.7910587,-2.45397 4.6136199,-4.02847 C 6.9570038,236.93632 7.0381313,221.89391 7.0306711,135.34441 7.0222711,38.04258 6.9923741,33.84538 6.2960368,32.31788 5.2628283,30.05135 3.5224699,28.12563 1.8827815,27.43459 0.86125705,27.00407 -1.5654587,26.79406 -6.8938679,26.67504 -16.917156,26.45116 -16.579612,26.5268 -17.154933,24.37575 c -0.530165,-1.98224 -2.372914,-4.29817 -4.228926,-5.31482 -1.149201,-0.62949 -6.335224,-0.67633 -74.882054,-0.67633 -40.506037,0 -74.136697,0.13695 -74.734797,0.30432 -1.58348,0.44314 -3.90375,2.63156 -4.73866,4.46939 -0.62905,1.3847 -0.7261,2.74115 -0.73369,10.25433 l -0.009,8.65854 4.09634,0 c 8.92414,0 15.64688,3.52701 18.42175,9.66477 2.19658,4.85865 1.28276,11.8947 -2.13133,16.41037 -1.61593,2.13732 -4.86894,4.33386 -7.44872,5.02963 -1.27992,0.3452 -9.02653,1.05778 -12.24138,1.12603 -0.65163,0.0138 -0.69666,1.0441 -0.69666,15.93854 l 0,15.92375 4.69348,0 c 5.13274,0 8.02575,0.56567 11.25055,2.1998 6.25654,3.17043 9.35578,10.91573 7.20339,18.00199 -1.02869,3.38675 -3.50105,7.20034 -5.73131,8.84049 -3.08042,2.26537 -5.46844,2.898 -11.74328,3.11102 l -5.67283,0.19258 0,15.87361 0,15.87361 4.9407,0 c 7.25329,0 11.31264,1.45913 14.90668,5.35822 6.5044,7.05641 4.31883,20.4867 -4.08952,25.12994 -3.05058,1.68462 -6.15038,2.1937 -11.47836,1.88526 l -4.2795,-0.24778 0,8.26666 0,8.26669 1.96103,4.03468 c 5.00405,10.29546 11.76687,17.55952 17.8809,19.20624 1.4558,0.39212 18.49033,0.50331 79.283409,0.51752 77.06567854,0.0179 77.43764539,0.0143 79.2206555,-0.79277 z M -164.11012,193.14776 c 3.02861,-2.14059 4.28022,-6.13941 2.98397,-9.53363 -0.81668,-2.13844 -3.2134,-4.39544 -5.27561,-4.96809 -0.86021,-0.23886 -5.326,-0.42234 -10.27909,-0.42234 -4.95309,0 -9.41888,0.18348 -10.27909,0.42234 -0.83657,0.23232 -2.21445,1.04885 -3.06197,1.81451 -4.23897,3.82966 -3.41123,10.64638 1.60262,13.19812 1.74429,0.88779 2.02991,0.90642 12.20277,0.79619 l 10.41667,-0.11282 1.68973,-1.19428 z m -0.97656,-63.38844 c 6.0185,-3.18479 6.0185,-11.34815 0,-14.55147 -1.51279,-0.80517 -2.30454,-0.88467 -10.07417,-1.01163 -5.42477,-0.0887 -9.23151,0.0281 -10.67297,0.32736 -6.66579,1.38381 -8.8354,9.34509 -3.83991,14.09034 2.03105,1.92931 4.00376,2.2276 13.98811,2.11511 8.33201,-0.0939 9.07169,-0.16154 10.59894,-0.96971 z m -1.31508,-63.43313 c 2.06221,-0.57265 4.45893,-2.82966 5.27561,-4.9681 1.29625,-3.39419 0.0446,-7.39304 -2.98397,-9.53361 l -1.68973,-1.19428 -10.41667,-0.11284 c -10.17286,-0.1102 -10.45848,-0.0916 -12.20277,0.79618 -6.19236,3.15158 -5.53741,12.51025 1.03958,14.85461 1.91533,0.68272 18.63487,0.80867 20.97795,0.15804 z"
     id="path4141"
     inkscape:connector-curvature="0" />
  <path
     style="fill:#c4ae8f;fill-opacity:0;stroke:#000000;stroke-width:0.65327185;stroke-miterlimit:6.69999981;stroke-dasharray:none;stroke-opacity:0"
     d="m -342.0888,26.34648 0,-259.75617 430.737431,0 430.737429,0 0,259.75617 0,259.75616 -430.737429,0 -430.737431,0 0,-259.75616 z M 1.8641945,241.88203 c 2.0362814,-0.92174 3.7910587,-2.45397 4.6136199,-4.02847 C 6.9570038,236.93632 7.0381313,221.89391 7.0306711,135.34441 7.0222711,38.04258 6.9923741,33.84538 6.2960368,32.31788 5.2628283,30.05135 3.5224699,28.12563 1.8827815,27.43459 0.86125705,27.00407 -1.5654587,26.79406 -6.8938679,26.67504 -16.917156,26.45116 -16.579612,26.5268 -17.154933,24.37575 c -0.530165,-1.98224 -2.372914,-4.29817 -4.228926,-5.31482 -1.149201,-0.62949 -6.335224,-0.67633 -74.882054,-0.67633 -40.506037,0 -74.136697,0.13695 -74.734797,0.30432 -1.58348,0.44314 -3.90375,2.63156 -4.73866,4.46939 -0.62905,1.3847 -0.7261,2.74115 -0.73369,10.25433 l -0.009,8.65854 4.09634,0 c 8.92414,0 15.64688,3.52701 18.42175,9.66477 2.19658,4.85865 1.28276,11.8947 -2.13133,16.41037 -1.61593,2.13732 -4.86894,4.33386 -7.44872,5.02963 -1.27992,0.3452 -9.02653,1.05778 -12.24138,1.12603 -0.65163,0.0138 -0.69666,1.0441 -0.69666,15.93854 l 0,15.92375 4.69348,0 c 5.13274,0 8.02575,0.56567 11.25055,2.1998 6.25654,3.17043 9.35578,10.91573 7.20339,18.00199 -1.02869,3.38675 -3.50105,7.20034 -5.73131,8.84049 -3.08042,2.26537 -5.46844,2.898 -11.74328,3.11102 l -5.67283,0.19258 0,15.87361 0,15.87361 4.9407,0 c 7.25329,0 11.31264,1.45913 14.90668,5.35822 6.5044,7.05641 4.31883,20.4867 -4.08952,25.12994 -3.05058,1.68462 -6.15038,2.1937 -11.47836,1.88526 l -4.2795,-0.24778 0,8.26666 0,8.26669 1.96103,4.03468 c 5.00405,10.29546 11.76687,17.55952 17.8809,19.20624 1.4558,0.39212 18.49033,0.50331 79.283409,0.51752 77.06567854,0.0179 77.43764539,0.0143 79.2206555,-0.79277 z M -164.11012,193.14776 c 3.02861,-2.14059 4.28022,-6.13941 2.98397,-9.53363 -0.81668,-2.13844 -3.2134,-4.39544 -5.27561,-4.96809 -0.86021,-0.23886 -5.326,-0.42234 -10.27909,-0.42234 -4.95309,0 -9.41888,0.18348 -10.27909,0.42234 -0.83657,0.23232 -2.21445,1.04885 -3.06197,1.81451 -4.23897,3.82966 -3.41123,10.64638 1.60262,13.19812 1.74429,0.88779 2.02991,0.90642 12.20277,0.79619 l 10.41667,-0.11282 1.68973,-1.19428 z m -0.97656,-63.38844 c 6.0185,-3.18479 6.0185,-11.34815 0,-14.55147 -1.51279,-0.80517 -2.30454,-0.88467 -10.07417,-1.01163 -5.42477,-0.0887 -9.23151,0.0281 -10.67297,0.32736 -6.66579,1.38381 -8.8354,9.34509 -3.83991,14.09034 2.03105,1.92931 4.00376,2.2276 13.98811,2.11511 8.33201,-0.0939 9.07169,-0.16154 10.59894,-0.96971 z m -1.31508,-63.43313 c 2.06221,-0.57265 4.45893,-2.82966 5.27561,-4.9681 1.29625,-3.39419 0.0446,-7.39304 -2.98397,-9.53361 l -1.68973,-1.19428 -10.41667,-0.11284 c -10.17286,-0.1102 -10.45848,-0.0916 -12.20277,0.79618 -6.19236,3.15158 -5.53741,12.51025 1.03958,14.85461 1.91533,0.68272 18.63487,0.80867 20.97795,0.15804 z"
     id="path4143"
     inkscape:connector-curvature="0" />
  <path
     style="fill:#433b31;fill-opacity:1;stroke:#000000;stroke-width:1.55958962;stroke-miterlimit:6.69999981;stroke-dasharray:none;stroke-opacity:0"
     d="M 0.50181102,0.185872 -0.04875595,135.04072 300.16408,135.58324 300.15392,-0.08540353 Z m 129.33559898,15.93539 41.02344,0 c 4.61643,0 8.37222,3.166266 8.37222,7.058308 l 0,7.76395 5.44156,0 0,4.235733 8.37221,0 c 2.77484,0 5.02369,1.897043 5.02369,4.235733 l 0,9.156519 c -1.08908,0.748858 -4.21599,2.672921 -10.04002,4.587621 -5.90491,1.941923 -15.68693,4.198714 -30.14585,4.800996 l 0,-7.95861 -15.24965,0 0,7.951122 c -22.87355,-0.965473 -35.28882,-6.060316 -40.00729,-8.503285 l 0,-10.034363 c 0,-2.338821 2.24886,-4.236397 5.02368,-4.235733 l 8.37038,0 0,-4.233862 5.44341,0 0,-7.765821 c 0,-3.892575 3.75564,-7.058308 8.37222,-7.058308 z m 0,5.64702 c -0.92339,0 -1.67519,0.632825 -1.67519,1.411288 l 0,7.76395 0,0.0019 5.4434,0 0,4.233862 33.48701,0 0,-4.233862 5.4434,0 0,-7.765821 c 0,-0.778463 -0.75165,-1.411288 -1.67518,-1.411288 l -41.02344,0 z m 68.23312,32.783413 0,9.56643 0,22.586208 c 0,2.339213 -2.2478,4.235865 -5.02186,4.235734 l -9.20979,0 0,-31.385227 c 6.5997,-1.608203 11.21915,-3.48865 14.23165,-5.003145 z m -95.44281,0.585853 c 3.42168,1.493875 8.36292,3.253077 15.06925,4.733615 l 0,31.068904 -10.04557,0 c -2.77482,0 -5.02368,-1.896914 -5.02368,-4.235734 l 0,-22.586208 z m 75.34988,5.656379 0,30.14614 -54.41936,0 0,-29.930893 c 5.41924,0.908649 11.75471,1.600915 19.07494,1.894195 l 0,2.223621 c 0,3.341565 3.21466,6.049443 7.1775,6.049443 l 0.89648,0 c 3.96363,0 7.17567,-2.707878 7.17567,-6.049443 l 0,-2.218005 c 7.87864,-0.311651 14.52864,-1.095652 20.09477,-2.115058 z"
     id="rect4137"
     inkscape:connector-curvature="0"
     sodipodi:nodetypes="cccccssscccsscccccccsccccsscscccccccssccccscccccccsscccccccsssscc" />
  <g
     id="g4149"
     transform="matrix(0.72302766,0,0,0.75976661,113.69423,175.8055)" />
</svg>
