<?xml version="1.0" encoding="UTF-8" standalone="no"?>
<svg
   xmlns:dc="http://purl.org/dc/elements/1.1/"
   xmlns:cc="http://creativecommons.org/ns#"
   xmlns:rdf="http://www.w3.org/1999/02/22-rdf-syntax-ns#"
   xmlns:svg="http://www.w3.org/2000/svg"
   xmlns="http://www.w3.org/2000/svg"
   xmlns:sodipodi="http://sodipodi.sourceforge.net/DTD/sodipodi-0.dtd"
   xmlns:inkscape="http://www.inkscape.org/namespaces/inkscape"
   preserveAspectRatio="xMidYMid"
   width="300"
   height="135"
   viewBox="0 0 300 135"
   id="svg2"
   version="1.1"
   inkscape:version="0.91 r13725"
   sodipodi:docname="service1.svg">
  <metadata
     id="metadata11">
    <rdf:RDF>
      <cc:Work
         rdf:about="">
        <dc:format>image/svg+xml</dc:format>
        <dc:type
           rdf:resource="http://purl.org/dc/dcmitype/StillImage" />
        <dc:title></dc:title>
      </cc:Work>
    </rdf:RDF>
  </metadata>
  <sodipodi:namedview
     pagecolor="#ffffff"
     bordercolor="#666666"
     borderopacity="1"
     objecttolerance="10"
     gridtolerance="10"
     guidetolerance="10"
     inkscape:pageopacity="0"
     inkscape:pageshadow="2"
     inkscape:window-width="640"
     inkscape:window-height="480"
     id="namedview9"
     showgrid="false"
     inkscape:zoom="2.6066336"
     inkscape:cx="171.06686"
     inkscape:cy="58.892356"
     inkscape:current-layer="svg2" />
  <defs
     id="defs4">
    <style
       id="style6">

      .cls-2 {
        fill: #4f4f4f;
      }
    </style>
  </defs>
  <rect
     style="fill:#000000;fill-opacity:0;stroke:#000000;stroke-width:1.64100003;stroke-miterlimit:6.69999981;stroke-dasharray:none;stroke-opacity:0"
     id="rect4139"
     width="205.41637"
     height="226.91342"
     x="-1.5923749"
     y="-90.719154" />
  <path
     style="fill:#c4ae8f;fill-opacity:0;stroke:#000000;stroke-width:0.65327185;stroke-miterlimit:6.69999981;stroke-dasharray:none;stroke-opacity:0"
     d="m -342.0888,26.34648 0,-259.75617 430.737431,0 430.737429,0 0,259.75617 0,259.75616 -430.737429,0 -430.737431,0 0,-259.75616 z M 1.8641945,241.88203 c 2.0362814,-0.92174 3.7910587,-2.45397 4.6136199,-4.02847 C 6.9570038,236.93632 7.0381313,221.89391 7.0306711,135.34441 7.0222711,38.04258 6.9923741,33.84538 6.2960368,32.31788 5.2628283,30.05135 3.5224699,28.12563 1.8827815,27.43459 0.86125705,27.00407 -1.5654587,26.79406 -6.8938679,26.67504 -16.917156,26.45116 -16.579612,26.5268 -17.154933,24.37575 c -0.530165,-1.98224 -2.372914,-4.29817 -4.228926,-5.31482 -1.149201,-0.62949 -6.335224,-0.67633 -74.882054,-0.67633 -40.506037,0 -74.136697,0.13695 -74.734797,0.30432 -1.58348,0.44314 -3.90375,2.63156 -4.73866,4.46939 -0.62905,1.3847 -0.7261,2.74115 -0.73369,10.25433 l -0.009,8.65854 4.09634,0 c 8.92414,0 15.64688,3.52701 18.42175,9.66477 2.19658,4.85865 1.28276,11.8947 -2.13133,16.41037 -1.61593,2.13732 -4.86894,4.33386 -7.44872,5.02963 -1.27992,0.3452 -9.02653,1.05778 -12.24138,1.12603 -0.65163,0.0138 -0.69666,1.0441 -0.69666,15.93854 l 0,15.92375 4.69348,0 c 5.13274,0 8.02575,0.56567 11.25055,2.1998 6.25654,3.17043 9.35578,10.91573 7.20339,18.00199 -1.02869,3.38675 -3.50105,7.20034 -5.73131,8.84049 -3.08042,2.26537 -5.46844,2.898 -11.74328,3.11102 l -5.67283,0.19258 0,15.87361 0,15.87361 4.9407,0 c 7.25329,0 11.31264,1.45913 14.90668,5.35822 6.5044,7.05641 4.31883,20.4867 -4.08952,25.12994 -3.05058,1.68462 -6.15038,2.1937 -11.47836,1.88526 l -4.2795,-0.24778 0,8.26666 0,8.26669 1.96103,4.03468 c 5.00405,10.29546 11.76687,17.55952 17.8809,19.20624 1.4558,0.39212 18.49033,0.50331 79.283409,0.51752 77.06567854,0.0179 77.43764539,0.0143 79.2206555,-0.79277 z M -164.11012,193.14776 c 3.02861,-2.14059 4.28022,-6.13941 2.98397,-9.53363 -0.81668,-2.13844 -3.2134,-4.39544 -5.27561,-4.96809 -0.86021,-0.23886 -5.326,-0.42234 -10.27909,-0.42234 -4.95309,0 -9.41888,0.18348 -10.27909,0.42234 -0.83657,0.23232 -2.21445,1.04885 -3.06197,1.81451 -4.23897,3.82966 -3.41123,10.64638 1.60262,13.19812 1.74429,0.88779 2.02991,0.90642 12.20277,0.79619 l 10.41667,-0.11282 1.68973,-1.19428 z m -0.97656,-63.38844 c 6.0185,-3.18479 6.0185,-11.34815 0,-14.55147 -1.51279,-0.80517 -2.30454,-0.88467 -10.07417,-1.01163 -5.42477,-0.0887 -9.23151,0.0281 -10.67297,0.32736 -6.66579,1.38381 -8.8354,9.34509 -3.83991,14.09034 2.03105,1.92931 4.00376,2.2276 13.98811,2.11511 8.33201,-0.0939 9.07169,-0.16154 10.59894,-0.96971 z m -1.31508,-63.43313 c 2.06221,-0.57265 4.45893,-2.82966 5.27561,-4.9681 1.29625,-3.39419 0.0446,-7.39304 -2.98397,-9.53361 l -1.68973,-1.19428 -10.41667,-0.11284 c -10.17286,-0.1102 -10.45848,-0.0916 -12.20277,0.79618 -6.19236,3.15158 -5.53741,12.51025 1.03958,14.85461 1.91533,0.68272 18.63487,0.80867 20.97795,0.15804 z"
     id="path4141"
     inkscape:connector-curvature="0" />
  <path
     style="fill:#c4ae8f;fill-opacity:0;stroke:#000000;stroke-width:0.65327185;stroke-miterlimit:6.69999981;stroke-dasharray:none;stroke-opacity:0"
     d="m -342.0888,26.34648 0,-259.75617 430.737431,0 430.737429,0 0,259.75617 0,259.75616 -430.737429,0 -430.737431,0 0,-259.75616 z M 1.8641945,241.88203 c 2.0362814,-0.92174 3.7910587,-2.45397 4.6136199,-4.02847 C 6.9570038,236.93632 7.0381313,221.89391 7.0306711,135.34441 7.0222711,38.04258 6.9923741,33.84538 6.2960368,32.31788 5.2628283,30.05135 3.5224699,28.12563 1.8827815,27.43459 0.86125705,27.00407 -1.5654587,26.79406 -6.8938679,26.67504 -16.917156,26.45116 -16.579612,26.5268 -17.154933,24.37575 c -0.530165,-1.98224 -2.372914,-4.29817 -4.228926,-5.31482 -1.149201,-0.62949 -6.335224,-0.67633 -74.882054,-0.67633 -40.506037,0 -74.136697,0.13695 -74.734797,0.30432 -1.58348,0.44314 -3.90375,2.63156 -4.73866,4.46939 -0.62905,1.3847 -0.7261,2.74115 -0.73369,10.25433 l -0.009,8.65854 4.09634,0 c 8.92414,0 15.64688,3.52701 18.42175,9.66477 2.19658,4.85865 1.28276,11.8947 -2.13133,16.41037 -1.61593,2.13732 -4.86894,4.33386 -7.44872,5.02963 -1.27992,0.3452 -9.02653,1.05778 -12.24138,1.12603 -0.65163,0.0138 -0.69666,1.0441 -0.69666,15.93854 l 0,15.92375 4.69348,0 c 5.13274,0 8.02575,0.56567 11.25055,2.1998 6.25654,3.17043 9.35578,10.91573 7.20339,18.00199 -1.02869,3.38675 -3.50105,7.20034 -5.73131,8.84049 -3.08042,2.26537 -5.46844,2.898 -11.74328,3.11102 l -5.67283,0.19258 0,15.87361 0,15.87361 4.9407,0 c 7.25329,0 11.31264,1.45913 14.90668,5.35822 6.5044,7.05641 4.31883,20.4867 -4.08952,25.12994 -3.05058,1.68462 -6.15038,2.1937 -11.47836,1.88526 l -4.2795,-0.24778 0,8.26666 0,8.26669 1.96103,4.03468 c 5.00405,10.29546 11.76687,17.55952 17.8809,19.20624 1.4558,0.39212 18.49033,0.50331 79.283409,0.51752 77.06567854,0.0179 77.43764539,0.0143 79.2206555,-0.79277 z M -164.11012,193.14776 c 3.02861,-2.14059 4.28022,-6.13941 2.98397,-9.53363 -0.81668,-2.13844 -3.2134,-4.39544 -5.27561,-4.96809 -0.86021,-0.23886 -5.326,-0.42234 -10.27909,-0.42234 -4.95309,0 -9.41888,0.18348 -10.27909,0.42234 -0.83657,0.23232 -2.21445,1.04885 -3.06197,1.81451 -4.23897,3.82966 -3.41123,10.64638 1.60262,13.19812 1.74429,0.88779 2.02991,0.90642 12.20277,0.79619 l 10.41667,-0.11282 1.68973,-1.19428 z m -0.97656,-63.38844 c 6.0185,-3.18479 6.0185,-11.34815 0,-14.55147 -1.51279,-0.80517 -2.30454,-0.88467 -10.07417,-1.01163 -5.42477,-0.0887 -9.23151,0.0281 -10.67297,0.32736 -6.66579,1.38381 -8.8354,9.34509 -3.83991,14.09034 2.03105,1.92931 4.00376,2.2276 13.98811,2.11511 8.33201,-0.0939 9.07169,-0.16154 10.59894,-0.96971 z m -1.31508,-63.43313 c 2.06221,-0.57265 4.45893,-2.82966 5.27561,-4.9681 1.29625,-3.39419 0.0446,-7.39304 -2.98397,-9.53361 l -1.68973,-1.19428 -10.41667,-0.11284 c -10.17286,-0.1102 -10.45848,-0.0916 -12.20277,0.79618 -6.19236,3.15158 -5.53741,12.51025 1.03958,14.85461 1.91533,0.68272 18.63487,0.80867 20.97795,0.15804 z"
     id="path4143"
     inkscape:connector-curvature="0" />
  <path
     style="fill:#433b31;fill-opacity:1;stroke:#000000;stroke-width:1.64100003;stroke-miterlimit:6.69999981;stroke-dasharray:none;stroke-opacity:0"
     d="M 0 0.2265625 L 0 135 L 299.8418 135 L 299.8418 0.2265625 L 0 0.2265625 z M 161.08008 10.771484 C 164.55478 10.771484 167.37519 13.229809 167.36719 16.269531 C 167.36719 17.85097 166.59073 19.272983 165.36328 20.275391 C 184.37591 22.20673 199.15039 36.786699 199.15039 54.488281 C 199.15039 55.426203 199.10424 56.359979 199.02344 57.28125 C 174.94936 57.28125 157.74474 57.268725 135.51562 57.265625 C 135.61068 56.366023 135.68574 55.471796 135.84375 54.585938 C 136.07078 52.143483 136.59642 49.768267 137.13281 47.439453 C 137.4897 46.30623 137.81784 45.168263 138.11328 44.042969 C 138.54614 42.960752 138.97003 41.890302 139.38867 40.833984 C 140.40906 38.815167 141.38718 36.823983 142.69727 35.128906 C 143.00331 34.688355 143.30585 34.258105 143.59766 33.828125 C 143.95848 33.438052 144.30923 33.054652 144.65039 32.673828 C 145.35234 31.926186 145.92771 31.113219 146.66992 30.466797 C 148.15407 29.201434 149.40245 27.881946 150.78125 26.960938 C 152.10375 25.995268 153.21542 25.052345 154.26367 24.455078 C 156.29268 23.150075 157.45312 22.345703 157.45312 22.345703 C 157.45312 22.345703 156.09196 22.768546 153.69336 23.611328 C 152.46954 23.988981 151.11212 24.65879 149.5293 25.429688 C 147.88715 26.123681 146.27432 27.244886 144.45117 28.423828 C 143.5364 28.998104 142.74245 29.780842 141.82617 30.503906 C 141.3921 30.88473 140.94035 31.265222 140.49023 31.658203 C 140.09612 32.098754 139.69528 32.537262 139.28906 32.990234 C 137.57819 34.748209 136.14326 36.848021 134.86133 39.095703 C 134.29497 40.24716 133.72871 41.426043 133.14844 42.611328 C 132.69469 43.825684 132.26058 45.068738 131.86133 46.326172 C 131.20537 48.847117 130.56439 51.438594 130.26562 54.019531 C 130.10398 55.10809 130.02883 56.18558 129.95312 57.261719 C 127.73222 57.261719 125.46494 57.261455 123.11719 57.261719 C 123.03785 56.343355 123 55.423296 123 54.488281 C 123 36.786699 137.77014 22.20673 156.78125 20.275391 C 155.55047 19.272718 154.77734 17.854139 154.77734 16.269531 C 154.77734 13.229809 157.60175 10.771484 161.08008 10.771484 z M 116.06836 59.310547 L 206.08984 59.310547 L 206.08984 66.244141 L 116.06836 66.244141 L 116.06836 59.310547 z M 144.76562 68.71875 C 147.08166 68.71875 148.90361 72.841324 144.71484 73.658203 C 140.53334 74.477989 129.74609 77.097656 129.74609 77.097656 L 148.60352 78.128906 C 148.60352 78.128906 164.55748 73.10661 169.13281 71.166016 C 173.72599 69.222517 175.63525 73.998695 173.27539 75.371094 C 170.90495 76.749829 151.11309 88.572646 147.86328 89.134766 C 144.61532 89.690536 120.68627 89.134766 117.92383 89.134766 C 115.17167 89.134766 112.41211 93.257812 112.41211 93.257812 L 108.86523 73.658203 L 122.26758 69.445312 C 122.26758 69.445313 142.44996 68.71875 144.76562 68.71875 z M 106.24023 73.400391 L 111.37695 97.814453 L 90.845703 101.17188 L 90.845703 75.765625 L 106.24023 73.400391 z "
     id="rect4137" />
</svg>
