<?xml version="1.0" encoding="UTF-8" standalone="no"?>
<!-- Generator: Adobe Illustrator 17.1.0, SVG Export Plug-In . SVG Version: 6.00 Build 0)  -->

<svg
   xmlns:dc="http://purl.org/dc/elements/1.1/"
   xmlns:cc="http://creativecommons.org/ns#"
   xmlns:rdf="http://www.w3.org/1999/02/22-rdf-syntax-ns#"
   xmlns:svg="http://www.w3.org/2000/svg"
   xmlns="http://www.w3.org/2000/svg"
   xmlns:sodipodi="http://sodipodi.sourceforge.net/DTD/sodipodi-0.dtd"
   xmlns:inkscape="http://www.inkscape.org/namespaces/inkscape"
   version="1.1"
   id="Layer_1"
   x="0px"
   y="0px"
   viewBox="0 0 300 135.00001"
   enable-background="new 0 0 63.2 82.2"
   xml:space="preserve"
   inkscape:version="0.91 r13725"
   sodipodi:docname="teach_icon1.svg"
   width="300"
   height="135"><metadata
     id="metadata15"><rdf:RDF><cc:Work
         rdf:about=""><dc:format>image/svg+xml</dc:format><dc:type
           rdf:resource="http://purl.org/dc/dcmitype/StillImage" /><dc:title></dc:title></cc:Work></rdf:RDF></metadata><defs
     id="defs13" /><sodipodi:namedview
     pagecolor="#ffffff"
     bordercolor="#666666"
     borderopacity="1"
     objecttolerance="10"
     gridtolerance="10"
     guidetolerance="10"
     inkscape:pageopacity="0"
     inkscape:pageshadow="2"
     inkscape:window-width="640"
     inkscape:window-height="480"
     id="namedview11"
     showgrid="false"
     inkscape:zoom="3.508093"
     inkscape:cx="147.13121"
     inkscape:cy="71.923845"
     inkscape:current-layer="Layer_1"
     showguides="false" /><path
     style="fill:#433b31;fill-opacity:1;stroke:#000000;stroke-width:2.29059315;stroke-miterlimit:6.69999981;stroke-dasharray:none;stroke-opacity:0"
     d="M -0.01726469,0.18630389 0.24543439,134.95706 300.42714,135.0996 299.97511,0.16394788 Z M 151.36947,11.009943 c 0.18325,0 0.36722,0.02457 0.5243,0.07593 l 25.55046,9.14352 c 0.62828,0.205464 1.04605,0.823323 1.04605,1.439718 0,0.616394 -0.41777,1.231332 -1.04605,1.436798 l -0.733,0.207343 -0.20869,0.10221 0,6.267006 0.4174,0 c 0.31414,-0.102734 0.62864,0.10357 0.62864,0.411766 l 0.20869,1.848563 c 0.10481,0.924591 0.21088,1.744579 0.31561,2.669171 0,0.205465 -0.001,0.309033 -0.21125,0.411766 0,0.102734 -0.20834,0.204422 -0.31305,0.204422 l -4.29361,0 c -0.10481,0 -0.20834,-0.101686 -0.31306,-0.204422 -0.10481,-0.102734 -0.10438,-0.309033 -0.10438,-0.411766 l 0.52175,-4.517734 c 0.10481,-0.205465 0.31451,-0.411766 0.62864,-0.411766 l 0.41995,0 0,-5.548606 -6.91255,2.464748 c 0.6283,2.05465 0.83735,4.314883 0.83735,6.883195 -0.20944,14.998939 -9.1086,23.937865 -17.27628,23.937865 -8.27239,0 -17.0694,-8.938926 -17.27882,-23.937865 0,-2.671044 0.31595,-5.032968 0.94423,-7.087617 l -9.42458,-3.39049 c -0.62828,-0.205465 -1.04859,-0.820401 -1.04859,-1.436796 0,-0.616396 0.42031,-1.234253 1.04859,-1.439718 l 25.55047,-9.041308 c 0.15707,-0.05136 0.3385,-0.07593 0.52174,-0.07593 z m -7.48774,19.904899 c -3.13099,0.0912 -6.44498,2.092978 -5.91486,6.369218 0.94241,8.218597 5.96901,16.438478 13.08955,16.438478 6.9111,0 13.08918,-9.966335 13.19391,-16.438478 0.10481,-9.348654 -15.60341,3.288795 -16.54584,0.309554 -0.20942,-0.616395 1.46671,-2.15958 1.2573,-3.597834 -0.3207,-2.067492 -2.64486,-3.151867 -5.08006,-3.080938 z m -0.36397,26.607038 7.4343,7.192738 -3.14322,20.956226 c -0.10481,0.102722 0,0.101675 0,0.204424 l 3.35193,4.520659 c 0,0.102722 0.10395,0.102265 0.2087,0.102265 0.1048,0 0.10642,5.09e-4 0.21124,-0.102265 l 3.34939,-4.520659 0,-0.204424 -3.14069,-20.956226 7.4343,-7.192738 4.60667,3.802259 9.52892,4.313303 c 1.46601,0.616398 2.93235,1.540479 3.56064,2.978731 0,0 10.36774,24.246899 4.81791,24.349635 l -60.52551,0 c -5.65455,0 4.71355,-24.349635 4.71355,-24.349635 0.733,-1.540987 2.09209,-2.362333 3.55808,-2.978731 l 9.52894,-4.313303 z"
     id="rect4138"
     inkscape:connector-curvature="0"
     sodipodi:nodetypes="ccccccccscccccccccsscccsccccscccsccccscscccscccccscccccccccscccc" /><g
     style="fill:#625748;fill-opacity:0.40769234"
     id="g5"
     transform="matrix(0.80357363,0,0,0.68708,6.8715185,55.140886)" /></svg>